<svg xmlns="http://www.w3.org/2000/svg" viewBox="0 0 512 512" class="llama-mark" role="img" aria-label="Llama Steve"><g transform="translate(0.000000,512.000000) scale(0.100000,-0.100000)" fill="currentColor" stroke="none"> <path d="M1343 4837 c-121 -51 -219 -151 -249 -255 -24 -81 -14 -184 25 -267 l30 -65 -30 -15 c-16 -9 -41 -34 -56 -57 -23 -33 -28 -52 -28 -101 0 -59 -1 -62 -46 -104 -102 -95 -116 -216 -41 -365 l40 -81 -25 -48 c-49 -93 -28 -222 46 -297 l33 -33 -42 -45 c-54 -59 -80 -116 -80 -182 0 -65 17 -108 65 -160 l36 -41 -35 -46 c-71 -93 -83 -218 -31 -318 l25 -50 -49 -52 c-27 -28 -62 -76 -77 -106 -26 -48 -29 -64 -29 -144 1 -104 20 -157 98 -262 l46 -62 -19 -43 c-12 -27 -20 -65 -20 -101 0 -101 39 -147 163 -188 64 -22 84 -33 89 -51 5 -13 26 -221 48 -463 50 -547 46 -522 75 -551 23 -23 30 -24 159 -24 147 0 179 8 195 49 5 14 12 89 15 166 23 529 27 579 50 597 46 38 88 12 100 -62 3 -19 10 -136 16 -260 19 -429 19 -431 51 -462 27 -27 30 -28 144 -28 127 0 168 12 178 52 3 13 24 174 46 358 57 467 56 458 86 490 24 25 82 50 117 50 10 0 19 -19 27 -55 8 -35 30 -81 58 -123 25 -37 52 -82 60 -101 18 -43 40 -212 48 -371 10 -222 14 -250 40 -276 23 -23 30 -24 165 -24 202 0 186 -29 192 341 6 335 6 335 86 413 58 56 56 57 90 -54 25 -82 40 -199 56 -454 13 -197 13 -199 40 -223 25 -21 35 -23 155 -23 117 0 131 2 156 22 l28 22 -7 125 c-3 69 -9 208 -13 309 l-6 182 51 48 c69 65 82 95 82 191 0 99 6 116 69 185 65 72 71 95 37 144 -39 57 -42 89 -12 160 33 79 34 140 1 209 -26 58 -93 135 -168 195 l-49 38 127 0 c192 0 324 34 452 116 89 57 94 108 19 179 -47 45 -116 73 -201 82 -54 6 -57 7 -72 44 -19 48 -67 91 -127 114 -94 36 -209 6 -332 -86 l-52 -38 -53 21 c-42 16 -83 22 -184 26 l-130 4 -56 53 c-101 96 -190 105 -429 45 -158 -40 -205 -38 -287 12 -32 20 -75 39 -96 43 -30 6 -37 11 -31 24 4 9 9 41 11 72 4 44 1 65 -17 99 -23 46 -23 59 5 160 28 102 12 232 -36 294 l-21 27 30 57 c60 112 64 261 12 380 -14 32 -17 49 -10 62 6 10 10 43 10 73 0 60 -41 155 -84 196 l-24 23 36 76 c31 65 37 89 40 161 3 71 0 96 -19 146 -51 136 -256 278 -347 239 -41 -17 -48 -47 -32 -140 14 -81 9 -234 -10 -297 l-11 -39 -47 6 c-26 3 -75 8 -108 12 l-62 6 -16 59 c-27 94 -31 212 -12 307 13 65 14 87 5 105 -28 52 -65 58 -146 24z m-23 -274 c0 -43 7 -109 15 -148 19 -89 20 -82 -17 -90 -27 -6 -35 -3 -55 21 -32 41 -48 118 -34 170 12 43 64 124 81 124 6 0 10 -33 10 -77z m664 -48 c22 -46 20 -140 -4 -190 -31 -65 -32 -67 -68 -54 -27 9 -31 15 -26 33 17 51 24 97 30 189 l7 98 23 -22 c13 -12 30 -36 38 -54z m-306 -346 c157 -19 269 -68 322 -141 33 -45 38 -91 15 -122 -21 -28 -19 -57 11 -115 45 -90 48 -195 9 -270 -8 -16 -33 -51 -56 -77 -51 -59 -47 -81 21 -144 27 -25 53 -55 59 -67 19 -38 12 -110 -15 -176 -33 -78 -34 -118 -5 -189 l24 -57 -18 -66 c-20 -75 -23 -152 -6 -183 16 -30 54 -37 117 -22 52 13 55 12 91 -13 106 -73 208 -80 388 -29 205 59 240 55 341 -39 70 -65 60 -62 229 -64 134 -1 194 -23 255 -93 52 -58 59 -99 31 -166 -39 -95 -39 -95 106 -200 110 -80 144 -157 111 -248 -33 -88 -34 -121 -4 -178 14 -27 26 -57 26 -65 0 -9 -20 -37 -44 -63 -57 -61 -66 -85 -66 -183 l0 -80 -50 -48 c-96 -93 -99 -120 -67 -621 2 -33 0 -35 -28 -35 l-30 0 -12 180 c-20 305 -57 466 -132 582 -67 104 -150 161 -282 195 -74 18 -101 20 -229 15 -80 -4 -208 -13 -285 -22 -164 -17 -221 -40 -285 -112 -52 -60 -68 -116 -80 -283 -5 -74 -21 -223 -35 -330 -14 -107 -25 -201 -25 -207 0 -8 -13 -13 -34 -13 l-33 0 -7 127 c-4 71 -11 211 -16 313 -5 102 -14 202 -20 224 -17 57 -82 121 -146 146 -74 27 -89 26 -155 -15 -76 -47 -122 -53 -178 -23 -54 28 -80 73 -88 152 -4 34 -12 61 -23 71 -10 9 -60 27 -111 40 -200 53 -209 62 -160 158 17 33 31 71 31 84 0 15 -23 52 -59 96 -76 93 -102 146 -103 207 0 79 34 132 155 236 63 55 62 77 -3 149 -46 51 -50 59 -50 105 0 46 4 54 55 111 88 99 87 148 -5 238 -33 32 -60 65 -60 74 0 32 21 69 68 120 70 75 92 111 92 149 0 43 -6 51 -57 76 -56 29 -83 66 -83 114 0 32 7 46 40 80 25 27 40 51 40 68 0 14 -22 57 -49 97 -66 97 -81 170 -46 223 6 9 29 31 53 49 56 44 73 78 66 133 -7 54 12 82 86 122 84 46 176 52 398 25z m2142 -1699 c16 -16 18 -25 10 -40 -17 -31 -11 -60 16 -85 24 -22 36 -25 113 -26 47 0 95 -4 106 -8 19 -8 19 -8 0 -18 -50 -27 -139 -45 -246 -50 -133 -7 -169 -1 -169 26 0 11 -13 45 -30 76 -16 31 -30 58 -30 60 0 7 87 59 119 70 52 20 88 18 111 -5z m-808 -1256 c27 -9 50 -20 53 -25 10 -14 -24 -68 -80 -129 -32 -35 -58 -74 -64 -97 -13 -49 -35 -417 -29 -489 l5 -54 -38 0 c-43 0 -49 12 -49 98 0 98 -31 406 -45 457 -10 32 -32 71 -64 108 -45 51 -79 122 -66 136 3 2 35 8 73 12 96 11 249 3 304 -17z m-1506 -190 l44 -6 -5 -52 c-6 -62 -25 -440 -25 -502 l0 -44 -45 0 c-28 0 -47 5 -49 13 -2 6 -13 136 -25 287 -12 151 -25 294 -28 317 l-5 42 46 -24 c26 -13 67 -27 92 -31z M1310 3907 c-76 -38 -29 -164 53 -143 64 16 75 111 17 141 -35 18 -38 18 -70 2z M1800 3913 c-56 -21 -70 -96 -24 -132 31 -24 43 -26 78 -10 45 21 54 94 15 126 -19 15 -51 22 -69 16z M1491 3644 c-25 -32 -23 -74 6 -106 15 -17 15 -19 -3 -39 -10 -12 -35 -29 -54 -38 -62 -29 -67 -107 -9 -137 36 -18 70 -10 130 32 l36 25 53 -36 c64 -43 115 -47 148 -12 41 44 24 96 -41 127 -23 11 -48 29 -55 40 -10 17 -9 23 8 40 25 25 26 71 1 101 -17 21 -29 24 -109 27 -88 4 -89 3 -111 -24z"/> </g></svg>